<?xml version="1.0" encoding="UTF-8" standalone="no"?>
<svg width="200" height="200" viewBox="0 0 200 200" fill="none" xmlns="http://www.w3.org/2000/svg">
  <circle cx="100" cy="100" r="80" fill="#6C63FF" opacity="0.2"/>
  <path d="M100 50C72.3858 50 50 72.3858 50 100C50 127.614 72.3858 150 100 150C127.614 150 150 127.614 150 100C150 72.3858 127.614 50 100 50ZM100 140C77.9086 140 60 122.091 60 100C60 77.9086 77.9086 60 100 60C122.091 60 140 77.9086 140 100C140 122.091 122.091 140 100 140Z" fill="#6C63FF"/>
  <path d="M100 70C83.4315 70 70 83.4315 70 100C70 116.569 83.4315 130 100 130C116.569 130 130 116.569 130 100C130 83.4315 116.569 70 100 70ZM100 120C89.0071 120 80 110.993 80 100C80 89.0071 89.0071 80 100 80C110.993 80 120 89.0071 120 100C120 110.993 110.993 120 100 120Z" fill="#6C63FF"/>
  <path d="M100 90C94.4772 90 90 94.4772 90 100C90 105.523 94.4772 110 100 110C105.523 110 110 105.523 110 100C110 94.4772 105.523 90 100 90Z" fill="#6C63FF"/>
  <path d="M160 100H180" stroke="#6C63FF" stroke-width="4" stroke-linecap="round"/>
  <path d="M20 100H40" stroke="#6C63FF" stroke-width="4" stroke-linecap="round"/>
  <path d="M100 20V40" stroke="#6C63FF" stroke-width="4" stroke-linecap="round"/>
  <path d="M100 160V180" stroke="#6C63FF" stroke-width="4" stroke-linecap="round"/>
</svg>
